<?xml version="1.0" encoding="UTF-8"?>
<svg version="1.1" xmlns="http://www.w3.org/2000/svg" width="500" height="500">
<path d="M0 0 C165 0 330 0 500 0 C500 165 500 330 500 500 C335 500 170 500 0 500 C0 335 0 170 0 0 Z M73 168 C70.29858452 172.44426418 69.43226921 176.08527473 70.375 181.1328125 C71.52288374 184.56211516 73.01833918 186.01222612 76 188 C79.05109996 188.40575941 81.94224299 188.27033215 85 188 C87 188 89 188 91 188 C91 184.37 91 180.74 91 177 C88.03 177 85.06 177 82 177 C82 177.99 82 178.98 82 180 C83.32 180 84.64 180 86 180 C85.34 181.32 84.68 182.64 84 184 C81.69 184 79.38 184 77 184 C76.77668801 182.41870971 76.57195356 180.83478911 76.375 179.25 C76.25898437 178.36828125 76.14296875 177.4865625 76.0234375 176.578125 C75.99792183 173.77140122 76.55156156 172.36615134 78 170 C80.875 169.8125 80.875 169.8125 84 170 C84.99 171.485 84.99 171.485 86 173 C88.58380177 173.25030977 88.58380177 173.25030977 91 173 C90.05322042 169.81537776 89.33558155 168.26302338 86.6875 166.1875 C81.40796226 163.854681 77.74801538 164.8002505 73 168 Z M95 166 C95 173.26 95 180.52 95 188 C100.61 188 106.22 188 112 188 C111.67 186.68 111.34 185.36 111 184 C107.37 184 103.74 184 100 184 C100 182.35 100 180.7 100 179 C103.3 179 106.6 179 110 179 C110 177.68 110 176.36 110 175 C106.7 175 103.4 175 100 175 C100 173.02 100 171.04 100 169 C103.63 169 107.26 169 111 169 C111 168.01 111 167.02 111 166 C105.72 166 100.44 166 95 166 Z M113 166 C113 166.99 113 167.98 113 169 C115.31 169 117.62 169 120 169 C120 175.27 120 181.54 120 188 C121.65 188 123.3 188 125 188 C125 181.73 125 175.46 125 169 C127.64 169 130.28 169 133 169 C133 168.01 133 167.02 133 166 C126.4 166 119.8 166 113 166 Z M142 166 C142 173.26 142 180.52 142 188 C143.32 188 144.64 188 146 188 C146 180.74 146 173.48 146 166 C144.68 166 143.36 166 142 166 Z M149 166 C149 166.99 149 167.98 149 169 C151.31 169 153.62 169 156 169 C156 175.27 156 181.54 156 188 C157.65 188 159.3 188 161 188 C161 181.73 161 175.46 161 169 C163.64 169 166.28 169 169 169 C169 168.01 169 167.02 169 166 C162.4 166 155.8 166 149 166 Z M169 206 C160.04745883 216.82175306 155.98630552 229.01101616 157 243 C159.36877791 256.4106403 165.51761776 266.39526097 176 275 C186.27206081 281.63183307 197.83781845 284.66254155 209.94921875 282.46484375 C224.32755177 279.16341973 234.38816041 271.92417576 242.59765625 259.484375 C248.23425927 249.49863817 249.58454487 237.57251822 246.8125 226.5 C242.80322698 213.23567618 236.05269099 203.95878863 224 197 C204.68459443 188.42975973 184.42387142 190.91888128 169 206 Z M69 195 C69 223.05 69 251.1 69 280 C77.0025 280.0825 85.005 280.165 93.25 280.25 C95.75110352 280.28641602 98.25220703 280.32283203 100.82910156 280.36035156 C102.84960069 280.37205268 104.87010938 280.38224112 106.890625 280.390625 C108.41792236 280.4213208 108.41792236 280.4213208 109.97607422 280.45263672 C122.50239842 280.45861017 132.66434194 276.29163795 142 268 C150.61777545 258.7551515 154.59407098 247.52604246 154.3125 234.9609375 C153.32163336 225.57247609 149.92634909 217.30390239 144 210 C143.49855469 209.37480469 142.99710937 208.74960938 142.48046875 208.10546875 C135.53843826 200.35269018 124.78304393 195.52728668 114.43397522 194.82615662 C111.52687201 194.7698774 108.62622647 194.77480327 105.71875 194.8046875 C104.31544434 194.80770874 104.31544434 194.80770874 102.88378906 194.81079102 C99.42247545 194.82117608 95.96123228 194.84909806 92.5 194.875 C84.745 194.91625 76.99 194.9575 69 195 Z M253 193 C253 221.71 253 250.42 253 280 C281.05 280 309.1 280 338 280 C338 251.95 338 223.9 338 195 C324.14 195 310.28 195 296 195 C295.67 204.9 295.34 214.8 295 225 C277.3346659 211.27539427 277.3346659 211.27539427 269.4375 205.0625 C268.87313232 204.61890137 268.30876465 204.17530273 267.72729492 203.71826172 C265.20662974 201.73680619 262.68767977 199.75324976 260.171875 197.765625 C259.35203125 197.12109375 258.5321875 196.4765625 257.6875 195.8125 C256.99011719 195.26207031 256.29273438 194.71164063 255.57421875 194.14453125 C254.18958093 192.90199127 254.18958093 192.90199127 253 193 Z M345 195 C345 223.05 345 251.1 345 280 C368.1 280 391.2 280 415 280 C415 270.43 415 260.86 415 251 C409.39 251 403.78 251 398 251 C398 250.01 398 249.02 398 248 C403.61 248 409.22 248 415 248 C415 241.07 415 234.14 415 227 C409.39 227 403.78 227 398 227 C398 226.01 398 225.02 398 224 C403.61 224 409.22 224 415 224 C415 214.43 415 204.86 415 195 C391.9 195 368.8 195 345 195 Z " fill="#000000" transform="translate(0,0)"/>
</svg>
